<svg xmlns="http://www.w3.org/2000/svg" viewBox="0 -40 300 380"><rect x="30" y="10" width="9" height="5" rx="1.5" fill="#F06FA0" transform="rotate(20 30 10)"/><rect x="70" y="-22" width="9" height="5" rx="1.5" fill="#4A90D9" transform="rotate(-30 70 -22)"/><rect x="240" y="0" width="9" height="5" rx="1.5" fill="#2F9E4A" transform="rotate(35 240 0)"/><rect x="268" y="40" width="9" height="5" rx="1.5" fill="#F59E0B" transform="rotate(-20 268 40)"/><rect x="20" y="60" width="9" height="5" rx="1.5" fill="#6D4AE0" transform="rotate(50 20 60)"/><rect x="200" y="-28" width="9" height="5" rx="1.5" fill="#F06FA0" transform="rotate(10 200 -28)"/><path transform="translate(30 150) scale(1.0)" d="M0 -14 L4 -4.5 L14 -4 L6 2.5 L9 12 L0 6.5 L-9 12 L-6 2.5 L-14 -4 L-4 -4.5 Z" fill="#FFC933" stroke="#E6A700" stroke-width="1.5" stroke-linejoin="round"/><path transform="translate(272 150) scale(1.0)" d="M0 -14 L4 -4.5 L14 -4 L6 2.5 L9 12 L0 6.5 L-9 12 L-6 2.5 L-14 -4 L-4 -4.5 Z" fill="#FFC933" stroke="#E6A700" stroke-width="1.5" stroke-linejoin="round"/></svg>