<svg xmlns="http://www.w3.org/2000/svg" viewBox="0 -40 300 380"><g transform="translate(36 30) scale(1.2)"><ellipse cx="0" cy="12" rx="6.5" ry="4.8" transform="rotate(-20 0 12)" fill="#6D4AE0"/><path d="M5.5 11 V-12 q9 2 11 11" stroke="#6D4AE0" stroke-width="3.2" fill="none" stroke-linecap="round"/></g><g transform="translate(266 56) scale(1.0)"><ellipse cx="0" cy="12" rx="6.5" ry="4.8" transform="rotate(-20 0 12)" fill="#F06FA0"/><path d="M5.5 11 V-12 q9 2 11 11" stroke="#F06FA0" stroke-width="3.2" fill="none" stroke-linecap="round"/></g><g transform="translate(246 -14) scale(0.8)"><ellipse cx="0" cy="12" rx="6.5" ry="4.8" transform="rotate(-20 0 12)" fill="#2F9E4A"/><path d="M5.5 11 V-12 q9 2 11 11" stroke="#2F9E4A" stroke-width="3.2" fill="none" stroke-linecap="round"/></g><g transform="translate(60 -6) scale(0.8)"><ellipse cx="0" cy="12" rx="6.5" ry="4.8" transform="rotate(-20 0 12)" fill="#4A90D9"/><path d="M5.5 11 V-12 q9 2 11 11" stroke="#4A90D9" stroke-width="3.2" fill="none" stroke-linecap="round"/></g></svg>